<?xml version="1.0" standalone="no"?>
<!DOCTYPE svg PUBLIC "-//W3C//DTD SVG 20010904//EN"
 "http://www.w3.org/TR/2001/REC-SVG-20010904/DTD/svg10.dtd">
<svg version="1.0" xmlns="http://www.w3.org/2000/svg"
 width="436.000000pt" height="436.000000pt" viewBox="0 0 436.000000 436.000000"
 preserveAspectRatio="xMidYMid meet">
<metadata>
Created by potrace 1.11, written by Peter Selinger 2001-2013
</metadata>
<g transform="translate(0.000000,436.000000) scale(0.100000,-0.100000)"
fill="#000000" stroke="none">
<path d="M281 4339 c-138 -49 -231 -147 -267 -284 -11 -41 -14 -387 -14 -1886
l0 -1836 25 -64 c56 -142 151 -225 295 -258 30 -7 656 -11 1866 -11 1626 0
1827 2 1875 16 142 41 246 145 283 284 13 47 15 307 15 1875 1 1936 2 1877
-46 1970 -31 59 -101 130 -158 161 -104 56 -11 54 -1990 53 -1774 -1 -1832 -1
-1884 -20z"/>
</g>
</svg>
